<svg xmlns="http://www.w3.org/2000/svg" viewBox="0 0 483.39 479.56"><title>banefits</title><g id="Capa_2" data-name="Capa 2"><g id="Capa_1-2" data-name="Capa 1"><path d="M405.51,407.22c-5-1.73-7.5-5.93-6.75-10.4,2.17-13.08-5.67-13.56-15.56-14.94-38.17-5.35-75.58,1.05-112.7,7.5-39,6.77-74,1.83-108.34-19.1-49.84-30.39-97.93-63.22-145.94-96.23-13.89-9.55-16.92-24.94-9.13-39,8.49-15.28,27.84-21.77,45.84-13.71,29.85,13.37,59.32,27.6,88.73,41.92,8.72,4.25,15.24,8.07,22.9-2.89,5.85-8.36,17-8.66,27.26-8.37,25.56.72,51.23,4.81,76.66-1.31,13.52-3.25,26.87-7.28,40.47-10.12,26.28-5.48,51.95-.83,77.21,6.34,7.72,2.19,13.55,4.63,12.62-7.52-.54-7.12,4.09-11.87,11.64-12,18.91-.24,37.82.07,56.73-.2,5.07-.08,7.75,4,11.91,5.23,0,56.3-.13,112.6.18,168.89,0,6.71-1.53,9.38-8.29,8.05-1.5-3-4.36-2.57-6.93-2.56C444.52,407,425,407.1,405.51,407.22Zm14.7-21.29h3.73V249.54c-5.2,9.81-3.39,20-3.62,30-.17,7.56-2,13.91-10.57,14.17-7.63.23-11.1-5.34-11.09-12.43,0-5-.75-8.16-6.34-9.87-30.41-9.32-61.25-17.24-92.61-6.64-33.73,11.39-68,11.65-102.7,9.21a62.22,62.22,0,0,0-13.44.11c-4.28.62-7.59,3.33-7.28,8.19.27,4.09,3.11,6.28,7.08,6.83,3.56.48,7.16.85,10.75,1,32.85,1.42,65.7,2.91,98.56,4.09,8.16.29,15.07,2.48,14.86,11.53-.2,8.27-6.58,10.51-14.42,10.14-36-1.72-72-3.22-108-4.77-8.43-.37-16.4-2.71-21.69-9.24-5.64-6.95-13-10.59-20.72-14.24-30.37-14.42-60.66-29-91-43.42a72.65,72.65,0,0,0-12.54-4.79c-6.17-1.63-10.51,1.56-13.24,6.7-3,5.7.52,9.05,5,12.07,11.89,8.06,23.62,16.34,35.5,24.39,39.73,26.9,79.08,54.36,121.75,76.69,18,9.41,36.16,13.62,57,11.15,48.55-5.76,96.84-17.57,146.31-9.11,5.09.87,7.34-.46,7.29-6.08-.08-7.65,3.35-13.44,12-12.62,9,.84,9.61,7.84,9.52,15C420.12,367,420.21,376.46,420.21,385.93Zm37.3-67.72c0-20,.13-40.09-.13-60.12-.05-3.28,2.61-8.59-4-9.28-7.2-.75-6.29,4.49-6.29,8.87q0,60.12,0,120.25c0,4.15-1.5,9.67,5.86,9.4,6.91-.26,4.33-5.69,4.37-9C457.63,358.29,457.51,338.25,457.51,318.21Z" style="fill:#070707"/><path d="M405.51,407.22c19.5-.12,39-.27,58.51-.34,2.57,0,5.43-.44,6.93,2.56H406.06A5.55,5.55,0,0,1,405.51,407.22Z" style="fill:#585858"/><rect x="164.42" y="175.49" width="95.62" height="22.75" rx="11.37"/><rect x="164.42" y="175.49" width="95.62" height="22.75" rx="11.37" transform="translate(399.09 -25.37) rotate(90)"/><rect x="220.15" y="95.46" width="72.7" height="17.3" rx="8.65"/><rect x="220.15" y="95.46" width="72.7" height="17.3" rx="8.65" transform="translate(360.61 -152.4) rotate(90)"/><rect x="130.15" y="95.46" width="72.7" height="17.3" rx="8.65"/><rect x="130.15" y="95.46" width="72.7" height="17.3" rx="8.65" transform="translate(270.61 -62.4) rotate(90)"/><g style="opacity:0"><rect y="27.7" width="72.7" height="17.3" rx="8.65"/><rect y="27.7" width="72.7" height="17.3" rx="8.65" transform="translate(72.7 0) rotate(90)"/></g><g style="opacity:0"><rect x="410.69" y="434.56" width="72.7" height="17.3" rx="8.65"/><rect x="410.69" y="434.56" width="72.7" height="17.3" rx="8.65" transform="translate(890.24 -3.84) rotate(90)"/></g></g></g></svg>