<svg xmlns="http://www.w3.org/2000/svg" viewBox="0 0 483.39 479.56"><title>cash</title><g id="Capa_2" data-name="Capa 2"><g id="Capa_1-2" data-name="Capa 1"><g style="opacity:0"><rect y="27.7" width="72.7" height="17.3" rx="8.65"/><rect y="27.7" width="72.7" height="17.3" rx="8.65" transform="translate(72.7 0) rotate(90)"/></g><g style="opacity:0"><rect x="410.69" y="434.56" width="72.7" height="17.3" rx="8.65"/><rect x="410.69" y="434.56" width="72.7" height="17.3" rx="8.65" transform="translate(890.24 -3.84) rotate(90)"/></g><path d="M88.57,364.71c-4.39-.19-7.8-2.61-10.06-7.18-9.81-19.83-19.12-39.91-28.41-60-16-34.5-32-69-47-103.88C-1,184,.69,179.63,10.43,175q21.14-10,42.36-19.74Q155.21,108,257.64,60.67c16.48-7.6,32.79-15.6,49.62-22.42,3.19-1.29,6.48-2.67,10.09-1.38,2.61.92,4.16,2.82,5.41,5.21,9.37,18,17.81,36.35,26.35,54.71,15.78,33.91,31.74,67.75,46.7,102a81.74,81.74,0,0,1,5.13,14.27c1.12,4.87.17,7.43-4.15,10-9,5.38-18.51,9.57-28,13.94Q251.43,291.36,134,345.53c-12.89,6-25.84,11.74-38.75,17.62A15.32,15.32,0,0,1,88.57,364.71ZM373.21,207.48c-.27-.67-.52-1.31-.81-1.95-21-46.12-42.1-92.22-63.84-138-1.13-2.38-2-2.91-4.55-1.71Q261.82,85.51,219.5,105,128,147.36,36.42,189.79c-2.3,1.07-5.91,1.5-6.44,3.66s1.55,4.72,2.59,7.06C52,244,72.27,287.07,92.22,330.31c2.91,6.3,2.89,6.33,9.22,3.41q115.11-53.1,230.22-106.23,19.72-9.11,39.42-18.29C371.89,208.83,373.08,208.77,373.21,207.48Z" style="fill:#020202"/><path d="M411.55,248.43c.38-.92,1.27-1.25,2-1.74a29.39,29.39,0,0,0,12.69-18.76c.45-2.16,1.43-2.56,3.43-2.55q18.63.13,37.26,0a8.57,8.57,0,0,1,6,2.37c3.88,3.2,4.91,6.92,4.89,11.86-.25,55.73-.24,111.47-.36,167.21,0,5.26-.27,10.53-.79,15.77-.52,5.39-2.33,7.16-7.64,7.84-12.26,1.56-24.6,1.38-36.91,1.45q-129.21.63-258.43.06c-12.81,0-25.63-.1-38.43-1-1.29-.09-2.57-.21-3.85-.4-5.87-.86-7.85-2.68-8.35-8.58-1.11-13.19.06-26.41-.09-39.62,0-1.3.78-1.65,1.71-2.07,6.51-2.94,13-5.87,19.51-8.88,1.72-.8,2.13-.33,2.25,1.43.69,9.83.28,19.66.39,29.5.06,5.42,0,5.42,5.43,5.42q148.74,0,297.48.08c3.14,0,3.64-.89,3.64-3.76q-.14-75.72-.07-151.43c0-3.84,0-3.84-4-3.84q-17.44,0-34.88,0C413.48,248.76,412.46,249.08,411.55,248.43Z" style="fill:#020202"/><path d="M300.06,397.19c-33.42,1.49-64.53-27.21-68.37-59.43-.78-6.51-.9-6.5,5-9.21,11.18-5.12,22.36-10.26,33.58-15.31.89-.4,2.41-1.78,2.94-.31s-1,2.34-2.58,2.53a7.09,7.09,0,0,0-5.62,4.36c-.77,1.56-.44,2.71,1.49,3l.89.12c4.32.49,5.66,2.57,4.45,6.84a2,2,0,0,1-2.13,1.66,3.69,3.69,0,0,0-3.13,1.45c-1,1.27-1.94,2.72-1.47,4.35.54,1.84,2.39,1.59,3.81,1.53,2.82-.11,4,1.06,4.43,3.9,1.44,9.22,5.65,16.93,13.47,22.28,13.42,9.2,35.24,1.08,39.12-14.45a9.42,9.42,0,0,0-.33-6.41c-2.09-4.51-7.43-5.11-10.17-1-1.82,2.71-3.25,5.68-4.92,8.49s-4,5.08-7.65,5.53c-5.87.74-9.48-1.16-12-6.53a42.88,42.88,0,0,1-2.65-8.2c-.52-2.12.32-3.26,2.51-3.34,2.78-.1,5.56-.16,8.34-.27a12.19,12.19,0,0,0,4.66-.82c1.95-.9,2.33-2.62,2.16-4.49s-1.87-1.86-3.19-1.9c-4.17-.11-8.35-.18-12.51-.06-1.89.06-2.3-.55-2.3-2.34,0-6-.09-5.94,6-6.3,2.87-.17,5.76-.08,8.58-.83,1.8-.48,3.57-1.06,3.45-3.39s-1.89-2.79-3.8-2.85c-4.07-.11-8.14-.16-12.21-.28-.85,0-2,.51-2-1.3a14.89,14.89,0,0,1,12.42-14.34c3.8-.68,6.91.4,9.11,3.58,1.23,1.79,2.21,3.76,3.31,5.64,1.85,3.17,3.83,4,7.51,3.09,3.1-.75,3.33-3.19,3.62-5.76.49-4.37-1.54-7.59-4.31-10.65-3.43-3.78-3.35-3.83,1.18-5.92,7.92-3.66,15.87-7.28,23.72-11.09a3,3,0,0,1,4.08.7,65.93,65.93,0,0,1,19.88,40.64c3.89,35.3-18,66.56-52.5,75.27a56.2,56.2,0,0,1-7.31,1.3C305.81,397,302.93,397,300.06,397.19Z" style="fill:#020202"/><path d="M269.73,200.61c1,33.89-28.12,68.61-69.07,68.58-31.61,0-68.43-25.43-68.46-69.37,0-36.94,31-67.48,67.81-68.32C237.94,130.64,271.14,163.28,269.73,200.61Zm-38.81,12.83c.05-11.37-6.08-19.34-15.7-21.23-4.24-.83-8.5-.27-12.75.2-1.12.12-2.33.51-3-1-2.07-4.72-4.25-9.4-6.35-14.1-.32-.69-.85-1.54-.13-2.2s1.52-.11,2.25.11c3.11,1,5.47,3.14,8,5,3.43,2.5,5.42,2.29,8-.68,3-3.47,3-5.25,0-8.49-5.87-6.33-13.11-7.84-21.22-5.75-1.86.48-2.64,0-3.36-1.63a15.9,15.9,0,0,0-3.64-5.75c-.81-.73-1.7-1.5-2.91-.87a2.75,2.75,0,0,0-1.28,2.82,13.09,13.09,0,0,0,1.26,4.57c1.64,4.15,1.59,4.1-1.9,6.7-6.54,4.87-9.47,11.26-8.11,19.46,1.39,8.37,7.2,14.49,14.81,15.19,4,.37,8.12.37,12.19.5,1.11,0,2.09,0,2.67,1.28,2.29,5.17,4.65,10.31,7,15.44.84,1.81-.06,2.27-1.66,2.41-2.59.23-4.59-1-6.52-2.45-2.15-1.59-4.2-3.33-6.42-4.82-2.51-1.7-4.84-1.15-7,.88a5.41,5.41,0,0,0-1.27,7,16.64,16.64,0,0,0,6.24,7,24.51,24.51,0,0,0,20,2.76c2-.54,2.83-.07,3.51,1.78a21.56,21.56,0,0,0,3.94,7.28,2.56,2.56,0,0,0,3.44.75c1.42-.78,2.06-1.87,1.52-3.44s-1.13-3-1.75-4.42c-2.08-4.9-2.08-4.89,1.75-8.52C227.36,224.64,231.27,219.63,230.92,213.44Z" style="fill:#020202"/><path d="M214.25,223.49c-2.65-5.93-5.16-11.49-7.61-17.08-.8-1.81.5-2,1.79-2,3.91.05,7.6.7,9.52,4.67a10.44,10.44,0,0,1-1,11.46C216.25,221.45,215.37,222.26,214.25,223.49Z" style="fill:#0a0a0a"/><path d="M192.92,193.4c-6.54,1-10.19-1.07-11.33-6.46-.7-3.29,1-5.75,2.92-8.07.91-1.08,1.52-.2,2.08.52C187.59,180.67,192.37,191.26,192.92,193.4Z" style="fill:#0c0c0c"/></g></g></svg>