<svg xmlns="http://www.w3.org/2000/svg" viewBox="0 0 475 478.23"><title>hands</title><g id="Capa_2" data-name="Capa 2"><g id="Capa_1-2" data-name="Capa 1"><path d="M301.5,172.84a7.74,7.74,0,0,1-5.5-2.27l-2.75-2.74a7.79,7.79,0,0,1,11-11l2.76,2.75a7.79,7.79,0,0,1-5.49,13.3Z"/><path d="M298.74,170.1a7.76,7.76,0,0,1-5.49-2.27l-14.32-14.24-.76-.61a7.79,7.79,0,0,1,10.13-11.83,12.26,12.26,0,0,1,1.4,1.19l14.53,14.45a7.79,7.79,0,0,1-5.49,13.31Zm-19.66-16.4h0Z"/><path d="M301.63,173a7.74,7.74,0,0,1-5.5-2.28,7.85,7.85,0,0,1-.07-11.07,7.7,7.7,0,0,1,10.94-.07l.14.13A7.79,7.79,0,0,1,301.63,173Z"/><path d="M173.45,321.09a7.8,7.8,0,1,1,5.43-13.36l.07.07a7.79,7.79,0,0,1-5.5,13.29Z"/><path d="M176.29,323.89a7.8,7.8,0,0,1-5.47-2.24l-2.84-2.8a7.79,7.79,0,1,1,10.94-11.09l2.84,2.8a7.79,7.79,0,0,1-5.47,13.33Z"/><path d="M374.2,245.44a7.77,7.77,0,0,1-5.73-2.52c-.33-.36-.66-.73-1-1.1s-.77-.87-1.18-1.28L309.47,184a7.78,7.78,0,1,1,11-11l56.86,56.57c.65.65,1.27,1.34,1.87,2,.25.28.5.57.75.84a7.78,7.78,0,0,1-5.73,13.06Z"/><path d="M191.72,339.1a7.72,7.72,0,0,1-5.46-2.24l-15.43-15.21a7.79,7.79,0,0,1,10.93-11.09l15.43,15.21a7.79,7.79,0,0,1-5.47,13.33Z"/><path d="M239.06,383a7.68,7.68,0,0,1-4.07-1.16,85.94,85.94,0,0,1-15.65-12.28L207.67,358l-21.41-21.11a7.79,7.79,0,0,1,10.93-11.09l33.13,32.77a70.72,70.72,0,0,0,12.82,10.06A7.79,7.79,0,0,1,239.06,383Z"/><path d="M160,307.75a7.78,7.78,0,0,1-5.49-2.27L97.7,248.91c-.66-.66-1.27-1.34-1.87-2-.25-.28-.5-.57-.76-.84a7.78,7.78,0,1,1,11.45-10.55c.34.36.67.73,1,1.1s.75.87,1.16,1.28l56.85,56.57A7.79,7.79,0,0,1,160,307.75Z"/><path d="M173.37,321a7.77,7.77,0,0,1-5.49-2.26l-13.33-13.27a7.79,7.79,0,1,1,11-11l13.34,13.27a7.78,7.78,0,0,1-5.5,13.3Z"/><path d="M100.8,248.55A7.76,7.76,0,0,1,95.07,246,87.18,87.18,0,0,1,72,190.29L46.56,165a7.78,7.78,0,1,1,11-11l27.67,27.52A7.78,7.78,0,0,1,87.5,187a71.57,71.57,0,0,0,19,48.5,7.79,7.79,0,0,1-5.73,13.06Z"/><path d="M173.45,321.09a7.8,7.8,0,1,1,5.43-13.37l.07.08a7.79,7.79,0,0,1-5.5,13.29Z"/><path d="M191.72,339.1a7.74,7.74,0,0,1-5.12-1.92,11.52,11.52,0,0,1-1.3-1.1l-14.53-14.46a7.79,7.79,0,1,1,11-11l14.32,14.25.78.62a7.79,7.79,0,0,1-5.13,13.65Z"/><path d="M176.26,323.89a7.78,7.78,0,0,1-5.49-2.27l-2.81-2.8a7.79,7.79,0,1,1,11-11l2.81,2.8a7.79,7.79,0,0,1-5.49,13.31Z"/><path d="M235.93,111a7.72,7.72,0,0,1-4.06-1.15,71.2,71.2,0,0,0-44.81-10.06l-12.42,1.37a7.76,7.76,0,0,1-6.35-2.21l-22.13-22a7.79,7.79,0,1,1,11-11l19.49,19.4,8.71-1A86.74,86.74,0,0,1,240,96.55,7.79,7.79,0,0,1,235.93,111Z"/><path d="M301.5,172.84A7.79,7.79,0,0,1,296,170.6l-2.78-2.75a7.79,7.79,0,1,1,10.93-11.09l2.78,2.75a7.79,7.79,0,0,1-5.46,13.33Z"/><path d="M298.71,170.09a7.72,7.72,0,0,1-5.46-2.24l-15.43-15.21a7.79,7.79,0,1,1,10.93-11.09l15.43,15.21a7.79,7.79,0,0,1-5.47,13.33Z"/><path d="M283.28,154.89a7.77,7.77,0,0,1-5.47-2.25l-33.13-32.77a70.82,70.82,0,0,0-12.82-10.06A7.78,7.78,0,1,1,240,96.55a86.4,86.4,0,0,1,15.64,12.28l11.67,11.61,21.42,21.11a7.79,7.79,0,0,1-5.47,13.34Z"/><path d="M317.82,189.09a7.76,7.76,0,0,1-3.48-.82c-1.28-.65-1.28-.65-18.22-17.58a7.87,7.87,0,0,1-.09-11.06,7.72,7.72,0,0,1,10.93-.12l.16.15c.06.06,14.59,14.53,16.07,16a7.79,7.79,0,0,1-5.37,13.44Z"/><path d="M41,178.26A7.77,7.77,0,0,1,35.49,176L2.29,143a7.79,7.79,0,0,1,11-11L41,159.49l5.58-5.55a7.79,7.79,0,0,1,11,11.05L46.48,176A7.77,7.77,0,0,1,41,178.26Z"/><path d="M52.05,167.25A7.78,7.78,0,0,1,46.56,154l99.58-99.09L118.49,27.34a7.79,7.79,0,0,1,11-11l33.2,33a7.76,7.76,0,0,1,0,11L57.54,165A7.75,7.75,0,0,1,52.05,167.25Z"/><path d="M374.2,245.44a7.78,7.78,0,0,1-6.61-11.89A70.13,70.13,0,0,0,377.68,189l-1.38-12.36a7.82,7.82,0,0,1,2.25-6.38l22.13-22a7.79,7.79,0,0,1,11,11L392.2,178.67l1,8.62a85.71,85.71,0,0,1-12.34,54.47A7.79,7.79,0,0,1,374.2,245.44Z"/><path d="M235.94,111a7.79,7.79,0,0,1-5.24-13.55,88,88,0,0,1,56-22.94l25.45-25.32a7.79,7.79,0,1,1,11,11L295.47,87.72A7.81,7.81,0,0,1,290,90a72.4,72.4,0,0,0-48.8,19A7.75,7.75,0,0,1,235.94,111Z"/><path d="M176.3,323.89a7.24,7.24,0,0,1-1.13-.08l-.43-.08a7.79,7.79,0,0,1,2.64-15.34l.44.08a7.79,7.79,0,0,1-1.52,15.42Z"/><path d="M317.64,62.46a7.77,7.77,0,0,1-5.49-2.26l-11.07-11a7.79,7.79,0,0,1,0-11L337.14,2.27a7.79,7.79,0,1,1,11,11L317.61,43.66l5.52,5.5a7.78,7.78,0,0,1-5.49,13.3Z"/><path d="M422.77,167.07a7.74,7.74,0,0,1-5.49-2.27L312.15,60.19a7.78,7.78,0,1,1,11-11l99.64,99.14,30.56-30.41a7.79,7.79,0,1,1,11,11L428.26,164.8A7.76,7.76,0,0,1,422.77,167.07Z"/><path d="M298.75,170.1a6.35,6.35,0,0,1-1.07-.08,1.9,1.9,0,0,1-.25,0,7.78,7.78,0,0,1,2.27-15.4,5.21,5.21,0,0,1,.57.09,7.79,7.79,0,0,1-1.52,15.42Z"/><path d="M68.83,332.42a7.78,7.78,0,0,1-5.49-13.3l19.47-19.38-1-8.62a85.72,85.72,0,0,1,12.33-54.47,7.79,7.79,0,0,1,13.23,8.22,70.1,70.1,0,0,0-10.09,44.52l1.38,12.36a7.79,7.79,0,0,1-2.24,6.38l-22.14,22A7.72,7.72,0,0,1,68.83,332.42Z"/><path d="M157.36,431.52a7.78,7.78,0,0,1-5.49-13.3l27.67-27.53a7.79,7.79,0,0,1,5.49-2.27,72.37,72.37,0,0,0,48.79-18.95A7.79,7.79,0,0,1,244.3,381a87.93,87.93,0,0,1-56,22.94l-25.45,25.33A7.75,7.75,0,0,1,157.36,431.52Z"/><path d="M157.36,431.52a7.75,7.75,0,0,1-5.49-2.26L52.23,330.11,21.85,360.34a7.78,7.78,0,1,1-11-11l35.87-35.7a7.78,7.78,0,0,1,11,0L162.85,418.22a7.78,7.78,0,0,1-5.49,13.3Z"/><path d="M132.55,478.23a7.79,7.79,0,0,1-5.49-13.3l30.33-30.18-5.52-5.49a7.79,7.79,0,1,1,11-11l11.07,11a7.77,7.77,0,0,1,0,11L138.05,476A7.74,7.74,0,0,1,132.55,478.23Z"/><path d="M323.35,414.83a7.72,7.72,0,0,1-5.49-2.27l-19.49-19.39-8.71,1a85.78,85.78,0,0,1-70.32-24.55L207.67,358l-39.76-39.2a22.67,22.67,0,0,1-.08-32.24l2.52-2.51a28.48,28.48,0,0,1,11.37-6.93l-38.17-38a27.19,27.19,0,0,1,.08-38.62l.34-.33A26.56,26.56,0,0,1,155,193.54,27.22,27.22,0,0,1,160.17,162a27.47,27.47,0,0,1,31.81-5,27.45,27.45,0,0,1,7-11.63l.35-.34a26.86,26.86,0,0,1,37.82,0l7.87,7.83a27.41,27.41,0,0,1,6.52-10.24l.35-.35a26.87,26.87,0,0,1,37.82,0l87.6,87.16A86.76,86.76,0,0,1,403,288.13l25.43,25.3a7.79,7.79,0,0,1-11,11l-27.67-27.53a7.76,7.76,0,0,1-2.29-5.52,71.33,71.33,0,0,0-21.18-50.87l-87.6-87.17a11.27,11.27,0,0,0-15.86,0l-.35.35a11.71,11.71,0,0,0-3.5,8.35A11.45,11.45,0,0,0,262.2,170l50,49.81a7.79,7.79,0,1,1-11,11l-49.82-49.57-.35-.36-24.93-24.82a11.28,11.28,0,0,0-15.86,0l-.35.35a11.74,11.74,0,0,0-3.52,8.36,11.4,11.4,0,0,0,3.24,8l63.84,63.53a7.79,7.79,0,1,1-11,11L198.85,184l-.26-.27-10.76-10.71a11.85,11.85,0,0,0-16.68,0,11.59,11.59,0,0,0,0,16.48l10.31,10.27.35.34,64,63.72a7.79,7.79,0,0,1-11,11L170.6,211a11.27,11.27,0,0,0-15.64.21l-.33.33a11.76,11.76,0,0,0-3.52,8.36,11.5,11.5,0,0,0,3.42,8.2l56,55.76.19.19,40.62,40.41a7.79,7.79,0,1,1-11,11l-40.75-40.54a13.11,13.11,0,0,0-18.32.13l-2.51,2.5a7.1,7.1,0,0,0,0,10.12l39.78,39.22,11.7,11.63a70.35,70.35,0,0,0,57.62,20.12l12.42-1.38a7.82,7.82,0,0,1,6.35,2.22l22.13,22a7.79,7.79,0,0,1-5.49,13.31Z"/><path d="M351,464.38a7.7,7.7,0,0,1-5.49-2.27l-33.2-33a7.77,7.77,0,0,1,0-11L428.52,302.42a7.8,7.8,0,0,1,11,0l33.2,33a7.79,7.79,0,0,1-11,11L434,318.92,328.86,423.56l27.65,27.51A7.79,7.79,0,0,1,351,464.38Z"/></g></g></svg>