<svg xmlns="http://www.w3.org/2000/svg" viewBox="0 0 445 469.72"><title>integration</title><g id="Capa_2" data-name="Capa 2"><g id="Capa_1-2" data-name="Capa 1"><path d="M106.64,115.37a57.69,57.69,0,1,1,57.93-57.68A57.87,57.87,0,0,1,106.64,115.37Zm0-98.89a41.21,41.21,0,1,0,41.45,41.21A41.37,41.37,0,0,0,106.64,16.48Z"/><path d="M164.61,469.72a8.24,8.24,0,0,1-8.24-8.24V304.91a8.24,8.24,0,1,1,16.48,0V461.48A8.24,8.24,0,0,1,164.61,469.72Z"/><path d="M49.44,469.72a8.24,8.24,0,0,1-8.24-8.24V179.72a8.25,8.25,0,0,1,16.49,0V461.48A8.24,8.24,0,0,1,49.44,469.72Z"/><path d="M106.64,469.55a8.24,8.24,0,0,1-8.24-8.24V296.67a8.24,8.24,0,0,1,16.48,0V461.31A8.24,8.24,0,0,1,106.64,469.55Z"/><path d="M49.44,313.15H41.2A41.12,41.12,0,0,1,0,272.21V190.63c0-60,28.5-91.74,82.41-91.74h24.72a8.24,8.24,0,1,1,0,16.48H82.41c-45,0-65.93,23.91-65.93,75.26v81.58A24.62,24.62,0,0,0,41.2,296.67h8.24a8.24,8.24,0,1,1,0,16.48Z"/><path d="M338.36,115.37A57.69,57.69,0,1,1,396.3,57.69,57.88,57.88,0,0,1,338.36,115.37Zm0-98.89a41.21,41.21,0,1,0,41.45,41.21A41.38,41.38,0,0,0,338.36,16.48Z"/><path d="M280.39,469.72a8.24,8.24,0,0,1-8.24-8.24V304.91a8.24,8.24,0,1,1,16.48,0V461.48A8.24,8.24,0,0,1,280.39,469.72Z"/><path d="M395.56,469.72a8.24,8.24,0,0,1-8.25-8.24V179.72a8.25,8.25,0,0,1,16.49,0V461.48A8.24,8.24,0,0,1,395.56,469.72Z"/><path d="M338.36,469.55a8.24,8.24,0,0,1-8.24-8.24V296.67a8.24,8.24,0,1,1,16.48,0V461.31A8.24,8.24,0,0,1,338.36,469.55Z"/><path d="M403.8,313.15h-8.24a8.24,8.24,0,1,1,0-16.48h8.24a24.62,24.62,0,0,0,24.72-24.46V190.63c0-51.35-20.95-75.26-65.93-75.26H337.87a8.24,8.24,0,0,1,0-16.48h24.72c53.91,0,82.41,31.72,82.41,91.74v81.58A41.12,41.12,0,0,1,403.8,313.15Z"/><path d="M173.06,313.15h-8.25a8.24,8.24,0,0,1,0-16.48h8.25a24.62,24.62,0,0,0,24.72-24.46V230.74a8.24,8.24,0,1,1,16.48,0v41.47A41.12,41.12,0,0,1,173.06,313.15Z"/><path d="M206,197.78a8.24,8.24,0,0,1-8.24-8.19c-.31-50.64-21.25-74.22-65.89-74.22H107.13a8.24,8.24,0,1,1,0-16.48h24.72c53.52,0,82,31.33,82.37,90.6a8.24,8.24,0,0,1-8.19,8.29Z"/><path d="M239,197.78H239a8.24,8.24,0,0,1-8.19-8.29c.37-59.27,28.85-90.6,82.37-90.6h24.72a8.24,8.24,0,1,1,0,16.48H313.15c-44.64,0-65.57,23.58-65.89,74.22A8.24,8.24,0,0,1,239,197.78Z"/><path d="M280.19,313.15h-8.25a41.12,41.12,0,0,1-41.2-40.94V230.74a8.24,8.24,0,1,1,16.48,0v41.47a24.62,24.62,0,0,0,24.72,24.46h8.25a8.24,8.24,0,0,1,0,16.48Z"/><path d="M239,197.78H206a8.24,8.24,0,1,1,0-16.48h33a8.24,8.24,0,0,1,0,16.48Z"/><path d="M329.63,197.78H239a8.24,8.24,0,0,1,0-16.48h90.61a8.24,8.24,0,1,1,0,16.48Z"/><path d="M206,239H115.37a8.24,8.24,0,0,1,0-16.48H206A8.24,8.24,0,0,1,206,239Z"/><path d="M239,239H206a8.24,8.24,0,0,1,0-16.48h33A8.24,8.24,0,0,1,239,239Z"/><path d="M140.09,271.94a8.17,8.17,0,0,1-5.82-2.41l-33-33a8.24,8.24,0,0,1,0-11.66l33-33a8.24,8.24,0,1,1,11.65,11.65l-27.14,27.14,27.14,27.14a8.24,8.24,0,0,1-5.83,14.06Z"/><path d="M304.91,230.74a8.24,8.24,0,0,1-5.83-14.07l27.14-27.13L299.08,162.4a8.24,8.24,0,1,1,11.65-11.65l33,33a8.23,8.23,0,0,1,0,11.65l-33,33A8.17,8.17,0,0,1,304.91,230.74Z"/></g></g></svg>