<svg xmlns="http://www.w3.org/2000/svg" viewBox="0 0 459 459"><title>world</title><g id="Capa_2" data-name="Capa 2"><g id="Capa_1-2" data-name="Capa 1"><path d="M398.27,381.05a7.64,7.64,0,0,1-5.81-12.61A214.23,214.23,0,0,0,443.7,229.5a7.65,7.65,0,1,1,15.3,0,229.57,229.57,0,0,1-54.9,148.87A7.65,7.65,0,0,1,398.27,381.05Z"/><path d="M451.35,237.15a7.66,7.66,0,0,1-7.65-7.65A214.23,214.23,0,0,0,392.46,90.56a7.65,7.65,0,0,1,11.64-9.93A229.57,229.57,0,0,1,459,229.5,7.66,7.66,0,0,1,451.35,237.15Z"/><path d="M7.65,237.15A7.66,7.66,0,0,1,0,229.5,229.57,229.57,0,0,1,54.9,80.63a7.65,7.65,0,0,1,11.64,9.93A214.23,214.23,0,0,0,15.3,229.5,7.66,7.66,0,0,1,7.65,237.15Z"/><path d="M398.28,93.25a7.61,7.61,0,0,1-5.82-2.69,214,214,0,0,0-163-75.26,7.65,7.65,0,0,1,0-15.3A229.31,229.31,0,0,1,404.1,80.63a7.66,7.66,0,0,1-5.82,12.62Z"/><path d="M60.73,381.05a7.65,7.65,0,0,1-5.83-2.68A229.57,229.57,0,0,1,0,229.5a7.65,7.65,0,0,1,15.3,0A214.23,214.23,0,0,0,66.54,368.44a7.64,7.64,0,0,1-5.81,12.61Z"/><path d="M229.5,459A229.31,229.31,0,0,1,54.9,378.37a7.65,7.65,0,1,1,11.64-9.93,214,214,0,0,0,163,75.26,7.65,7.65,0,0,1,0,15.3Z"/><path d="M229.5,459a7.65,7.65,0,0,1,0-15.3,214,214,0,0,0,163-75.26,7.65,7.65,0,1,1,11.64,9.93A229.31,229.31,0,0,1,229.5,459Z"/><path d="M60.72,93.25A7.66,7.66,0,0,1,54.9,80.63,229.31,229.31,0,0,1,229.5,0a7.65,7.65,0,1,1,0,15.3,214,214,0,0,0-163,75.26A7.61,7.61,0,0,1,60.72,93.25Z"/><path d="M229.5,237.15a7.66,7.66,0,0,1-7.65-7.65V160.65a7.65,7.65,0,1,1,15.3,0V229.5A7.66,7.66,0,0,1,229.5,237.15Z"/><path d="M229.5,107.1a7.65,7.65,0,0,1-7.65-7.65V7.65a7.65,7.65,0,1,1,15.3,0v91.8A7.65,7.65,0,0,1,229.5,107.1Z"/><path d="M229.5,338.83a7.66,7.66,0,0,1-7.65-7.65V229.5a7.65,7.65,0,0,1,15.3,0V331.18A7.66,7.66,0,0,1,229.5,338.83Z"/><path d="M229.5,459a7.66,7.66,0,0,1-7.65-7.65V331.18a7.65,7.65,0,0,1,15.3,0V451.35A7.66,7.66,0,0,1,229.5,459Z"/><path d="M321.3,237.15H229.5a7.65,7.65,0,0,1,0-15.3h91.8a7.65,7.65,0,0,1,0,15.3Z"/><path d="M451.35,237.15H382.5a7.65,7.65,0,1,1,0-15.3h68.85a7.65,7.65,0,0,1,0,15.3Z"/><path d="M229.5,237.15H109.33a7.65,7.65,0,1,1,0-15.3H229.5a7.65,7.65,0,0,1,0,15.3Z"/><path d="M109.33,237.15H7.65a7.65,7.65,0,1,1,0-15.3H109.33a7.65,7.65,0,1,1,0,15.3Z"/><path d="M109.33,237.15a7.66,7.66,0,0,1-7.65-7.65c0-41.59,6.19-82.3,17.89-117.73a7.65,7.65,0,1,1,14.52,4.8C122.9,150.47,117,189.52,117,229.5A7.65,7.65,0,0,1,109.33,237.15Z"/><path d="M118.82,323.49a7.65,7.65,0,0,1-7.45-5.94,394.45,394.45,0,0,1-9.69-88.05,7.65,7.65,0,0,1,15.3,0,379.32,379.32,0,0,0,9.3,84.63,7.64,7.64,0,0,1-7.46,9.36Z"/><path d="M332.17,121.82a7.65,7.65,0,0,1-7.26-5.25C304.27,54.11,267.72,15.3,229.5,15.3a7.65,7.65,0,0,1,0-15.3c45.72,0,86.82,41.78,109.93,111.77a7.64,7.64,0,0,1-4.86,9.66A7.49,7.49,0,0,1,332.17,121.82Z"/><path d="M348.54,206.89a7.66,7.66,0,0,1-7.63-7.09c-2.19-29.71-7.58-57.72-16-83.23a7.65,7.65,0,0,1,14.52-4.8c8.82,26.7,14.45,55.94,16.74,86.9a7.64,7.64,0,0,1-7.06,8.2Z"/><path d="M332.17,352.48a7.49,7.49,0,0,1-2.4-.39,7.64,7.64,0,0,1-4.86-9.66c8.42-25.51,13.81-53.52,16-83.23a7.65,7.65,0,1,1,15.26,1.13c-2.29,31-7.92,60.2-16.74,86.9A7.64,7.64,0,0,1,332.17,352.48Z"/><path d="M229.5,459a7.65,7.65,0,0,1,0-15.3c38.22,0,74.77-38.8,95.41-101.27a7.65,7.65,0,0,1,14.52,4.8C316.32,417.22,275.22,459,229.5,459Z"/><path d="M229.5,459c-38.21,0-74-29.95-98.22-82.17a7.65,7.65,0,1,1,13.88-6.44C166.75,417,197.5,443.7,229.5,443.7a7.65,7.65,0,0,1,0,15.3Z"/><path d="M126.83,121.82a7.49,7.49,0,0,1-2.4-.39,7.64,7.64,0,0,1-4.86-9.66C142.68,41.78,183.78,0,229.5,0a7.65,7.65,0,1,1,0,15.3c-38.22,0-74.77,38.81-95.41,101.27A7.65,7.65,0,0,1,126.83,121.82Z"/><path d="M60.73,381.05a7.65,7.65,0,0,1-4.11-14.11,239,239,0,0,1,41.67-20.51,7.65,7.65,0,1,1,5.52,14.27,222.73,222.73,0,0,0-39,19.16A7.58,7.58,0,0,1,60.73,381.05Z"/><path d="M332.17,352.48a7.58,7.58,0,0,1-2.09-.29c-30.84-8.74-65.62-13.36-100.58-13.36a7.65,7.65,0,0,1,0-15.3c36.87,0,72.11,4.69,104.76,13.94a7.65,7.65,0,0,1-2.09,15Z"/><path d="M398.27,381.05a7.58,7.58,0,0,1-4.09-1.19c-18-11.4-39.53-20.71-64.1-27.67a7.65,7.65,0,0,1,4.18-14.72c26,7.37,48.91,17.28,68.12,29.47a7.65,7.65,0,0,1-4.11,14.11Z"/><path d="M159.78,345a7.65,7.65,0,0,1-1.35-15.18,403.11,403.11,0,0,1,71.07-6.24,7.65,7.65,0,0,1,0,15.3,387.61,387.61,0,0,0-68.36,6A7.9,7.9,0,0,1,159.78,345Z"/><path d="M199.25,134.32l-.58,0a373.83,373.83,0,0,1-73.93-12.77,7.65,7.65,0,1,1,4.18-14.72A358,358,0,0,0,199.81,119a7.65,7.65,0,0,1-.56,15.28Z"/><path d="M332.17,121.82a7.65,7.65,0,0,1-2.09-15c24.57-7,46.14-16.27,64.1-27.67a7.65,7.65,0,1,1,8.2,12.92c-19.21,12.19-42.13,22.1-68.12,29.47A7.58,7.58,0,0,1,332.17,121.82Z"/><path d="M126.83,121.82a7.58,7.58,0,0,1-2.09-.29c-26-7.37-48.91-17.28-68.12-29.47a7.65,7.65,0,0,1,8.2-12.92c18,11.4,39.53,20.71,64.1,27.67a7.65,7.65,0,0,1-2.09,15Z"/><path d="M259.75,134.32a7.65,7.65,0,0,1-.56-15.28,358,358,0,0,0,70.89-12.23,7.65,7.65,0,1,1,4.18,14.72,373.83,373.83,0,0,1-73.93,12.77Z"/><path d="M138.21,381.26a7.65,7.65,0,0,1-2.05-15A22.46,22.46,0,0,0,152.33,339a7.66,7.66,0,0,1,14.91-3.48,37.81,37.81,0,0,1-27,45.42A7.74,7.74,0,0,1,138.21,381.26Z"/><path d="M130.05,382.5a38.07,38.07,0,0,1-36.28-26.59,7.65,7.65,0,1,1,14.56-4.69,22.26,22.26,0,0,0,27.83,15A7.65,7.65,0,1,1,140.27,381,37.3,37.3,0,0,1,130.05,382.5Z"/><path d="M159.78,345a7.66,7.66,0,0,1-7.45-5.91A22.72,22.72,0,0,0,121.64,323,7.65,7.65,0,0,1,116,308.73a38,38,0,0,1,51.23,26.83,7.65,7.65,0,0,1-5.72,9.19A7.44,7.44,0,0,1,159.78,345Z"/><path d="M101.05,361.22a7.67,7.67,0,0,1-7.29-5.32A37.66,37.66,0,0,1,116,308.73,7.65,7.65,0,1,1,121.64,323a22.81,22.81,0,0,0-14.54,21.29,22.55,22.55,0,0,0,1.23,7,7.66,7.66,0,0,1-7.28,10Z"/><path d="M321.3,237.15a7.66,7.66,0,0,1-7.65-7.65,38.12,38.12,0,0,1,34.05-37.86,7.65,7.65,0,1,1,1.68,15.2A22.85,22.85,0,0,0,329,229.5,7.66,7.66,0,0,1,321.3,237.15Z"/><path d="M351.9,267.75a23.59,23.59,0,0,1-3.39-.28l-.8-.1a7.65,7.65,0,1,1,1.67-15.21c.4,0,.8.1,1.19.15.54.07,1,.14,1.33.14a23,23,0,0,0,23-22.95,7.65,7.65,0,0,1,15.3,0A38.29,38.29,0,0,1,351.9,267.75Z"/><path d="M348.55,267.41a8.19,8.19,0,0,1-.85,0,38.13,38.13,0,0,1-34.05-37.87,7.65,7.65,0,1,1,15.3,0,22.85,22.85,0,0,0,20.43,22.66,7.65,7.65,0,0,1-.83,15.25Z"/><path d="M382.5,237.15a7.66,7.66,0,0,1-7.65-7.65,23,23,0,0,0-23-22.95c-.29,0-.79.07-1.33.14-.39.05-.79.11-1.19.15a7.65,7.65,0,1,1-1.67-15.2l.8-.11a25.13,25.13,0,0,1,3.39-.28,38.29,38.29,0,0,1,38.25,38.25A7.66,7.66,0,0,1,382.5,237.15Z"/><path d="M229.5,168.3a38.29,38.29,0,0,1-38.25-38.25,25.62,25.62,0,0,1,.28-3.42c0-.27.08-.54.11-.81a7.65,7.65,0,1,1,15.2,1.69c0,.39-.09.78-.15,1.18a13.59,13.59,0,0,0-.14,1.36A23,23,0,0,0,229.5,153a7.65,7.65,0,0,1,0,15.3Z"/><path d="M199.25,134.32a8.43,8.43,0,0,1-.86,0,7.64,7.64,0,0,1-6.75-8.45,38.13,38.13,0,0,1,37.86-34,7.65,7.65,0,1,1,0,15.3,22.85,22.85,0,0,0-22.66,20.41A7.65,7.65,0,0,1,199.25,134.32Z"/><path d="M229.5,168.3a7.65,7.65,0,0,1,0-15.3,23,23,0,0,0,22.95-22.95,13.59,13.59,0,0,0-.14-1.36c-.06-.4-.11-.79-.15-1.18a7.65,7.65,0,1,1,15.2-1.69c0,.27.07.54.11.81a25.62,25.62,0,0,1,.28,3.42A38.29,38.29,0,0,1,229.5,168.3Z"/><path d="M259.75,134.32a7.65,7.65,0,0,1-7.59-6.81A22.85,22.85,0,0,0,229.5,107.1a7.65,7.65,0,0,1,0-15.3,38.13,38.13,0,0,1,37.86,34,7.64,7.64,0,0,1-6.75,8.45A8.43,8.43,0,0,1,259.75,134.32Z"/></g></g></svg>