<svg xmlns="http://www.w3.org/2000/svg" viewBox="0 0 739.48 217.54"><title>Recurso 2</title><g id="Capa_2" data-name="Capa 2"><g id="Capa_3" data-name="Capa 3"><path d="M418.8,117.59c0-29.19-.29-58.39.11-87.58.23-17,9.32-25,23.9-22.41,10.3,1.8,15.79,7.91,16,18.31.24,10.9.52,21.82-.05,32.69-.36,7,1.39,9.45,8.88,9.25,19.85-.56,39.73-.29,59.59-.16,26.94.16,37.49,10.55,37.27,37.64-.18,22.13,2.39,44.48-3.5,66.26-7.65,28.31-27,44.36-56.26,45.38-25.68.9-51.41.16-77.12.43-7.27.08-9.13-3-9.06-9.88.29-30,.12-60,.12-89.93Zm40.11,3.86v37.07c0,20.24,0,18.42,27.86,18.41,28.74,0,39.59-7.79,39.73-36.22.16-8.23.16-15.29.16-23.67,0-2.06-.2-5.73-2.48-8-2.44-2.39-6.59-3.38-11-3.38H467.41a8.07,8.07,0,0,0-6.27,3.06C458.13,112.29,459.21,121.45,458.91,121.45Z"/><path d="M63.74,30.9C64,13.8,72,7.67,84.69,7.67c14.91,0,19.08,9.47,19.25,20.75.16,10.51.4,21-.06,31.54-.26,6.24,2,7.9,8,7.81,19.47-.32,39-.19,58.44-.1,25.5.12,39.74,14.22,39.74,39.88,0,21.75,1.79,43.68-4.17,65-8,28.52-29.54,44.63-59.37,44.67-12,0-21.28-7.25-22.45-17.63-1.24-11,5.53-19.67,17.5-22.53,21.85-5.22,28.76-3.85,28.76-31.27V120.41c0-4.46-1.67-7.68-3.55-9.42-4.86-4.48-7.51-4.38-12.57-4.29-6.39.1-31.57.1-37.75.1-4.54,0-8.19,3.08-10.22,6.14-2.35,3.54-2,16.78-2.09,26.72-.16,18.3.63,36.6.62,54.9,0,18.05-15.71,28-31.17,20.09-6.79-3.48-10.27-8.48-10.16-16.68.38-27.65.14-55.3.14-82.95C63.58,115,63.32,58.93,63.74,30.9Z"/><path d="M318.78,217.34c-17.92,0-35.84.15-53.76-.05-14.21-.15-21.65-7.31-22.09-21.4-.34-11.28-.32-22.59,0-33.87.47-17,8.72-27.57,25.6-31.58,21.55-5.12,43.34-9.23,65-14.14,3.94-.89,10.62-.64,10.5-5.93-.08-3.66-7.06-2.81-10.67-2.87-21.81-.35-43.63,0-65.45-.25-15.35-.14-22.62-6.34-23-18.85-.4-13.12,7-20.41,22.62-20.61,29.6-.37,59.21-.49,88.81,0,18.13.32,28.08,8.86,28.64,27.13,1.16,37.72.61,75.5.63,113.26,0,6.86-4.06,9.28-10.7,9.2C356.18,217.2,337.48,217.34,318.78,217.34Zm4.34-39.29c22.31,0,22,0,21.53-22.11-.13-6.63-2.15-7.93-8.08-6.64-14.8,3.23-29.36,4.79-44.53,8.87-10.33,2.18-8.78,7.54-8.78,14,0,6.27,6.59,5.44,10.69,5.77C300.52,178.44,320,178.05,323.12,178.05Z"/><path d="M739.29,148c0,18.31-.39,36.63.17,54.92.32,10.33-2.81,14.83-13.9,14.58-26.88-.59-53.79,0-80.68-.24-31.6-.24-46.68-14.7-47.37-46.34-.59-27.25-.36-54.54,0-81.8.17-14.48,7.33-21.48,20.49-21.46s20.37,7,20.54,21.37c.29,24.54.44,49.09-.07,73.62-.22,10.75,4,14.77,14.47,14.33a353.26,353.26,0,0,1,36.24.08c8.1.49,8.6-3.29,8.54-9.66q-.39-39.15,0-78.3c.14-14.46,7-21.26,20.44-21.44S739,74.31,739.2,88.42C739.53,108.29,739.29,128.16,739.29,148Z"/><circle cx="21.83" cy="21.83" r="21.83" style="fill:#cddd00"/></g></g></svg>