<?xml version="1.0" encoding="UTF-8"?><svg id="Capa_1" xmlns="http://www.w3.org/2000/svg" viewBox="0 0 738.35 248.38"><defs><style>.cls-1,.cls-2{fill:#1d1d1b;}.cls-2{font-family:XenaraRg-Regular, Xenara;font-size:31.56px;}</style></defs><text class="cls-2" transform="translate(528.08 118.76)"><tspan x="0" y="0">integrador</tspan><tspan x="0" y="31.98">de medios</tspan><tspan x="0" y="63.96">de pago</tspan></text><path class="cls-1" d="M124.54,182.69c-6.64,0-12.03-5.39-12.03-8.17V75.25c0-11.98,4.13-15.97,12.22-15.81,6.43,.12,11.51,5.52,11.51,11.95v23.51h41.41c11.39,0,20.62,9.23,20.62,20.62v21.61c0,30.32-13.34,45.56-39.85,45.56,0,0-10.71-2.12-10.71-12s11.05-11.91,11.05-11.91c10.22,0,15.42-6.58,15.42-19.92v-20.05h-37.94v39.97l.32,11.54c.19,6.77-5.25,12.37-12.03,12.37h0Z"/><path class="cls-1" d="M277.27,118.12h-44.7c-9.18,0-13.86-3.81-13.86-11.61s4.68-11.61,13.86-11.61h50.59c12.13,0,18.02,6.24,18.02,18.88v64.4c0,2.6-1.91,4.5-4.33,4.5h-67.74c-6.24,0-11.61-5.37-11.61-12.13v-20.44c0-10.05,6.41-16.8,16.28-18.88l43.49-9.18v-3.94Zm0,41.53v-17.84l-36.04,7.27v10.57h36.04Z"/><path class="cls-1" d="M385.73,94.9c13.69,0,20.62,6.58,20.62,20.27v21.95c0,30.32-13.34,45.56-39.85,45.56h-41.58c-2.43,0-4.33-1.91-4.33-.64V75.25c0-11.83,3.98-15.82,11.78-15.82s11.96,3.99,11.96,11.96v23.51h41.41Zm-41.41,63.88h22.52c10.22,0,15.42-6.58,15.42-19.92v-20.05h-37.94v39.97Z"/><path class="cls-1" d="M508.56,178.18c0,2.6-2.08,4.5-4.68,4.5h-50.59c-18.54,0-27.72-9.36-27.72-28.07v-47.76c0-7.97,3.98-11.96,11.78-11.96s12.13,3.99,12.13,11.96v46.03c0,3.98,1.91,5.89,5.54,5.89h29.28v-51.92c0-7.97,3.99-11.96,12.13-11.96s12.13,3.99,12.13,11.96v71.33Z"/><circle class="cls-1" cx="73.07" cy="78.53" r="19.3"/></svg>